/* XPM */
static char *OpenBve[] = {
/* columns rows colors chars-per-pixel */
"32 32 55 1 ",
"  c #020202",
". c #0C0C0C",
"X c #141414",
"o c #1C1C1C",
"O c #232323",
"+ c #2C2C2C",
"@ c #333333",
"# c #3B3B3B",
"$ c #444444",
"% c #43474E",
"& c #4C4C4C",
"* c #444852",
"= c #494D56",
"- c #535353",
"; c #53555A",
": c #5C5C5C",
"> c #646464",
", c #6D6D6D",
"< c #747474",
"1 c #75777B",
"2 c #76797E",
"3 c #7C7C7C",
"4 c #9F7E34",
"5 c #A67D24",
"6 c #8C794F",
"7 c #81765D",
"8 c #857B64",
"9 c #817969",
"0 c #F8AB03",
"q c #F0AA0B",
"w c #FFB600",
"e c #BCA674",
"r c #D7B465",
"t c blue",
"y c #848484",
"u c #8B8B8B",
"i c #939393",
"p c #95969A",
"a c #9B9B9B",
"s c #A29F97",
"d c #A4A4A4",
"f c #ACACAC",
"g c #B3B3B3",
"h c #B6B6B9",
"j c #BCBCBC",
"k c #BEC2CA",
"l c #C3C3C3",
"z c #CBCBCB",
"x c #C7CBD6",
"c c #D4D4D4",
"v c #DBDBDB",
"b c #E3E3E3",
"n c #EBEBEB",
"m c #F3F3F3",
"M c #FEFEFE",
/* pixels */
"tt $,. &,,<,<,,,<,<,,<<<<<<<:@tt",
"tojMMO jMMMMMMMMMmmmnnbbbvvccd-t",
".lMMmo gMmmmmnnnbbbvvvcczzzllzd&",
"$MMMmO fMmmnnbnbbvvccczzzlljjgh,",
",MMMmO fMnnbnnnbbbvczzllkjhhfffe",
"<MmMn+ fmnnnzdy33udlzlljhhgffdp1",
",Mmmb+.fnnj>@oOO+@#-yhjgfffddap2",
"<Mnnb@Xfny+o@-,33,-&&>affddapppy",
"<mnnv#od<O+>dlzzllgi,:>udapiiuu3",
"<nbvc$+&@#uzzkjjggffdy<<uiiuuy3y",
"<bvvz&@@#izjjhgfffddaayyuuuy2233",
"<bccz&#$<zjghfffdsaaipuuuu332,>e",
"<vzzl;$-fjgfffddaaiiuuyuaa1<,,>2",
"<cllj:&<ggfdddaapiuuyy22af3>>>;y",
"<zjjg>;ifyud33p9<y,,317,aju:::=y",
"3lhgf,>a9y1><<:;:$&>;8w0eki---%y",
"2hgfp>,p,u3$3<$->&><%6wwrxa&&&#y",
"2gddpe3uy>,>-:3::>>>-:45svi$$#@y",
"2dpppuyuuyy<33<,,>>::-=%hb1@##+y",
"3appuuui93<<,,>>>:;--&$>vv-@#@Oy",
"3iuuyyadu,,,>>::--&&&$#fmg+@++oy",
"3uyy3<uff1:>:::--&&$#@3nn:O+OOXu",
"3331<,,djf,=--&&$$##+<bMaoOOOoXy",
"y<<,,>>,hzly-#$##@+$amMgOOOooX.y",
"e;,>>::->gvvli,:><dvMMdOoooXXX y",
"2>>:::-&&&icnmmmmMMMc,XooXXXX. y",
"y;;---&$$#@&3fzvvzd>OXXXXX...  y",
"y=;=&%$###@@OO+@+oXXXXXX... .  u",
"i&&&#$#@@@+++OOoooXXX.....     g",
"g:@##@@@++OOooooXX.X...       @m",
"tf-+OOOooXXX...              #ct",
"ttlduyyuuyyyyuyuyyuyyuyyuyyugmtt"
};
